<?xml version="1.0" encoding="iso-8859-1"?>
<!-- Generator: Adobe Illustrator 19.0.0, SVG Export Plug-In . SVG Version: 6.00 Build 0)  -->
<svg version="1.1" id="Layer_1" xmlns="http://www.w3.org/2000/svg" xmlns:xlink="http://www.w3.org/1999/xlink" x="0px" y="0px"
	 viewBox="0 0 512 512" style="enable-background:new 0 0 512 512;" xml:space="preserve">
<path style="fill:#C3C8D6;" d="M205.972,422.06v73.28c0,9.203,7.463,16.66,16.66,16.66h66.641c9.198,0,16.438-7.457,16.438-16.66
	v-73.28H205.972z"/>
<path style="fill:#B8BDC9;" d="M255.953,512h33.321c9.198,0,16.438-7.457,16.438-16.66v-73.28h-49.759L255.953,512L255.953,512z"/>
<path style="fill:#A06D4A;" d="M497.97,350.754L300.935,24.102C290.938,9.108,274.056,0,255.952,0s-34.987,9.108-45.427,24.768
	L14.156,350.421c-23.658,36.097,2.332,83.857,45.205,83.857h393.182C496.082,434.278,521.184,385.408,497.97,350.754z"/>
<path style="fill:#895D41;" d="M452.544,434.278H255.953V0c18.104,0,34.987,9.108,44.983,24.102l197.035,326.652
	C521.184,385.408,496.082,434.278,452.544,434.278z"/>
<path style="fill:#FFE477;" d="M469.871,368.636L272.835,41.984c-3.776-5.664-10.329-8.663-16.882-8.663s-13.106,2.999-17.327,9.33
	L42.479,367.97c-10.107,16.882,1.777,32.987,16.882,32.987h393.182C469.204,400.957,479.09,382.409,469.871,368.636z"/>
<path style="fill:#FFB655;" d="M452.544,400.957H255.953V33.321c6.553,0,13.106,2.999,16.882,8.663l197.035,326.652
	C479.09,382.409,469.204,400.957,452.544,400.957z"/>
<path style="fill:#A06D4A;" d="M328.146,211.03H289.05v-72.194c0-16.105-20.437-22.769-29.877-9.774l-3.221,4.443l-85.634,117.733
	c-7.997,10.996-0.11,26.434,13.439,26.434h38.874v72.194c0,16.105,20.659,22.769,30.1,9.774l3.221-4.443l85.634-117.733
	C349.583,226.469,341.697,211.03,328.146,211.03z"/>
<path style="fill:#895D41;" d="M341.587,237.464l-85.634,117.733V133.504l3.221-4.443c9.441-12.995,29.877-6.331,29.877,9.774
	v72.194h39.096C341.697,211.03,349.583,226.469,341.587,237.464z"/>
<g>
</g>
<g>
</g>
<g>
</g>
<g>
</g>
<g>
</g>
<g>
</g>
<g>
</g>
<g>
</g>
<g>
</g>
<g>
</g>
<g>
</g>
<g>
</g>
<g>
</g>
<g>
</g>
<g>
</g>
</svg>
