<?xml version="1.0" encoding="iso-8859-1"?>
<!-- Generator: Adobe Illustrator 19.0.0, SVG Export Plug-In . SVG Version: 6.00 Build 0)  -->
<svg version="1.1" id="Capa_1" xmlns="http://www.w3.org/2000/svg" xmlns:xlink="http://www.w3.org/1999/xlink" x="0px" y="0px"
	 viewBox="0 0 512 512" style="enable-background:new 0 0 512 512;" xml:space="preserve">
<g>
	<path style="fill:#BDC3C7;" d="M341.333,452.267c-4.71,0-8.533-3.814-8.533-8.533c0-18.824-15.309-34.133-34.133-34.133
		C275.14,409.6,256,390.46,256,366.933c0-4.719,3.823-8.533,8.533-8.533s8.533,3.814,8.533,8.533c0,14.114,11.486,25.6,25.6,25.6
		c28.237,0,51.2,22.963,51.2,51.2C349.867,448.452,346.044,452.267,341.333,452.267"/>
	<path style="fill:#BDC3C7;" d="M256,512C114.842,512,0,397.158,0,256S114.842,0,256,0s256,114.842,256,256
		c0,83.738-45.824,169.805-116.745,219.281c-11.529,8.038-26.769,9.412-39.774,3.541c-12.493-5.615-20.864-16.879-22.391-30.123
		c-0.188-1.638-0.29-3.285-0.29-4.966c0-4.719,3.823-8.533,8.533-8.533s8.533,3.814,8.533,8.533c0,1.015,0.06,2.022,0.179,3.012
		c0.845,7.313,5.376,13.338,12.442,16.521c7.552,3.388,16.358,2.645,22.997-1.98C451.977,414.908,494.933,334.327,494.933,256
		c0-131.746-107.187-238.933-238.933-238.933S17.067,124.254,17.067,256S124.254,494.933,256,494.933
		c4.71,0,8.533,3.814,8.533,8.533C264.533,508.186,260.71,512,256,512"/>
	<path style="fill:#BDC3C7;" d="M351.154,179.2h-18.355v17.067h-25.6V179.2h-34.133v17.067h-25.6V179.2h-34.133v17.067h-25.6V179.2
		h-18.065c-8.875,0-16.068,7.194-16.068,16.068v92.851c0,24.678,20.002,44.681,44.681,44.681h123.972
		c24.678,0,44.681-20.002,44.681-44.681v-93.141C366.932,186.266,359.867,179.2,351.154,179.2"/>
</g>
<g>
	<polygon style="fill:#95A5A5;" points="238.933,366.933 281.6,366.933 281.6,332.8 238.933,332.8 	"/>
	<path style="fill:#95A5A5;" d="M213.333,196.267h-25.6V98.133c0-7.066,5.734-12.8,12.8-12.8c7.066,0,12.8,5.734,12.8,12.8V196.267z
		"/>
	<path style="fill:#95A5A5;" d="M332.8,196.267h-25.6V98.133c0-7.066,5.734-12.8,12.8-12.8c7.066,0,12.8,5.734,12.8,12.8
		L332.8,196.267L332.8,196.267z"/>
	<path style="fill:#95A5A5;" d="M366.933,230.4H153.6c-4.71,0-8.533-3.823-8.533-8.533s3.823-8.533,8.533-8.533h213.333
		c4.71,0,8.533,3.823,8.533,8.533C375.467,226.577,371.644,230.4,366.933,230.4"/>
	<polygon style="fill:#95A5A5;" points="247.467,196.267 273.067,196.267 273.067,136.533 247.467,136.533 	"/>
</g>
<g>
</g>
<g>
</g>
<g>
</g>
<g>
</g>
<g>
</g>
<g>
</g>
<g>
</g>
<g>
</g>
<g>
</g>
<g>
</g>
<g>
</g>
<g>
</g>
<g>
</g>
<g>
</g>
<g>
</g>
</svg>
