<?xml version="1.0" encoding="iso-8859-1"?>
<!-- Generator: Adobe Illustrator 19.0.0, SVG Export Plug-In . SVG Version: 6.00 Build 0)  -->
<svg version="1.1" id="Capa_1" xmlns="http://www.w3.org/2000/svg" xmlns:xlink="http://www.w3.org/1999/xlink" x="0px" y="0px"
	 viewBox="0 0 503.322 503.322" style="enable-background:new 0 0 503.322 503.322;" xml:space="preserve">
<path style="fill:#ECF0F1;" d="M464.454,399.186H38.869c-16.679,0-30.191-13.512-30.191-30.191V30.191
	C8.679,13.512,22.19,0,38.869,0h425.585c16.67,0,30.191,13.512,30.191,30.191v338.805
	C494.645,385.675,481.125,399.186,464.454,399.186"/>
<polygon style="fill:#BDC3C7;" points="225.626,468.61 277.694,468.61 277.694,399.186 225.626,399.186 "/>
<path style="fill:#95A5A5;" d="M425.219,503.322H78.101c0-19.17,15.542-34.712,34.712-34.712h277.695
	C409.677,468.61,425.219,484.152,425.219,503.322"/>
<g>
	<polygon style="fill:#F0C419;" points="52.067,95.458 104.135,95.458 104.135,43.39 52.067,43.39 	"/>
	<polygon style="fill:#F0C419;" points="138.847,95.458 190.914,95.458 190.914,43.39 138.847,43.39 	"/>
	<polygon style="fill:#F0C419;" points="225.626,95.458 277.694,95.458 277.694,43.39 225.626,43.39 	"/>
	<polygon style="fill:#F0C419;" points="312.406,95.458 364.474,95.458 364.474,43.39 312.406,43.39 	"/>
	<polygon style="fill:#F0C419;" points="399.186,95.458 451.253,95.458 451.253,43.39 399.186,43.39 	"/>
	<polygon style="fill:#F0C419;" points="52.067,182.237 104.135,182.237 104.135,130.169 52.067,130.169 	"/>
	<polygon style="fill:#F0C419;" points="138.847,182.237 190.914,182.237 190.914,130.169 138.847,130.169 	"/>
	<polygon style="fill:#F0C419;" points="225.626,182.237 277.694,182.237 277.694,130.169 225.626,130.169 	"/>
	<polygon style="fill:#F0C419;" points="312.406,182.237 364.474,182.237 364.474,130.169 312.406,130.169 	"/>
	<polygon style="fill:#F0C419;" points="399.186,182.237 451.253,182.237 451.253,130.169 399.186,130.169 	"/>
	<polygon style="fill:#F0C419;" points="52.067,269.017 104.135,269.017 104.135,216.949 52.067,216.949 	"/>
	<polygon style="fill:#F0C419;" points="138.847,269.017 190.914,269.017 190.914,216.949 138.847,216.949 	"/>
	<polygon style="fill:#F0C419;" points="225.626,269.017 277.694,269.017 277.694,216.949 225.626,216.949 	"/>
	<polygon style="fill:#F0C419;" points="312.406,269.017 364.474,269.017 364.474,216.949 312.406,216.949 	"/>
	<polygon style="fill:#F0C419;" points="399.186,269.017 451.253,269.017 451.253,216.949 399.186,216.949 	"/>
	<polygon style="fill:#F0C419;" points="52.067,355.797 104.135,355.797 104.135,303.729 52.067,303.729 	"/>
	<polygon style="fill:#F0C419;" points="138.847,355.797 190.914,355.797 190.914,303.729 138.847,303.729 	"/>
	<polygon style="fill:#F0C419;" points="225.626,355.797 277.694,355.797 277.694,303.729 225.626,303.729 	"/>
	<polygon style="fill:#F0C419;" points="312.406,355.797 364.474,355.797 364.474,303.729 312.406,303.729 	"/>
	<polygon style="fill:#F0C419;" points="399.186,355.797 451.253,355.797 451.253,303.729 399.186,303.729 	"/>
</g>
<g>
	<path style="fill:#95A5A5;" d="M381.83,26.034c4.799,0,8.678-3.888,8.678-8.678V0h-17.356v17.356
		C373.152,22.146,377.031,26.034,381.83,26.034"/>
	<path style="fill:#95A5A5;" d="M295.05,26.034c4.799,0,8.678-3.888,8.678-8.678V0h-17.356v17.356
		C286.372,22.146,290.251,26.034,295.05,26.034"/>
	<path style="fill:#95A5A5;" d="M208.27,26.034c4.799,0,8.678-3.888,8.678-8.678V0h-17.356v17.356
		C199.592,22.146,203.471,26.034,208.27,26.034"/>
	<path style="fill:#95A5A5;" d="M121.491,26.034c4.799,0,8.678-3.888,8.678-8.678V0h-17.356v17.356
		C112.813,22.146,116.692,26.034,121.491,26.034"/>
	<path style="fill:#95A5A5;" d="M477.287,104.136c-4.799,0-8.678,3.888-8.678,8.678s3.879,8.678,8.678,8.678h17.356v-17.356H477.287
		z"/>
	<path style="fill:#95A5A5;" d="M477.287,190.915c-4.799,0-8.678,3.888-8.678,8.678s3.879,8.678,8.678,8.678h17.356v-17.356
		L477.287,190.915L477.287,190.915z"/>
	<path style="fill:#95A5A5;" d="M477.287,277.695c-4.799,0-8.678,3.888-8.678,8.678s3.879,8.678,8.678,8.678h17.356v-17.356
		L477.287,277.695L477.287,277.695z"/>
	<path style="fill:#95A5A5;" d="M381.83,373.153c-4.799,0-8.678,3.888-8.678,8.678v17.356h17.356v-17.356
		C390.508,377.04,386.629,373.153,381.83,373.153"/>
	<path style="fill:#95A5A5;" d="M295.05,373.153c-4.799,0-8.678,3.888-8.678,8.678v17.356h17.356v-17.356
		C303.728,377.04,299.849,373.153,295.05,373.153"/>
	<path style="fill:#95A5A5;" d="M208.27,373.153c-4.799,0-8.678,3.888-8.678,8.678v17.356h17.356v-17.356
		C216.948,377.04,213.069,373.153,208.27,373.153"/>
	<path style="fill:#95A5A5;" d="M121.491,373.153c-4.799,0-8.678,3.888-8.678,8.678v17.356h17.356v-17.356
		C130.169,377.04,126.29,373.153,121.491,373.153"/>
	<path style="fill:#95A5A5;" d="M26.033,121.492c4.799,0,8.678-3.888,8.678-8.678s-3.879-8.678-8.678-8.678H8.677v17.356H26.033z"/>
	<path style="fill:#95A5A5;" d="M26.033,208.271c4.799,0,8.678-3.888,8.678-8.678s-3.879-8.678-8.678-8.678H8.677v17.356
		L26.033,208.271L26.033,208.271z"/>
	<path style="fill:#95A5A5;" d="M26.033,295.051c4.799,0,8.678-3.888,8.678-8.678s-3.879-8.678-8.678-8.678H8.677v17.356
		L26.033,295.051L26.033,295.051z"/>
</g>
<g>
</g>
<g>
</g>
<g>
</g>
<g>
</g>
<g>
</g>
<g>
</g>
<g>
</g>
<g>
</g>
<g>
</g>
<g>
</g>
<g>
</g>
<g>
</g>
<g>
</g>
<g>
</g>
<g>
</g>
</svg>
