<?xml version="1.0" encoding="iso-8859-1"?>
<!-- Generator: Adobe Illustrator 19.0.0, SVG Export Plug-In . SVG Version: 6.00 Build 0)  -->
<svg version="1.1" id="Layer_1" xmlns="http://www.w3.org/2000/svg" xmlns:xlink="http://www.w3.org/1999/xlink" x="0px" y="0px"
	 viewBox="0 0 512 512" style="enable-background:new 0 0 512 512;" xml:space="preserve">
<path style="fill:#7F838C;" d="M422.957,495.304c0,9.238-7.456,16.696-16.696,16.696h-256c-27.381,0-51.645-13.134-66.783-33.614
	c-10.574-13.913-16.696-31.165-16.696-49.864V150.261c0-9.238,7.456-16.696,16.696-16.696s16.696,7.457,16.696,16.696v278.261
	c0,27.603,22.483,50.087,50.087,50.087h256C415.5,478.609,422.957,486.066,422.957,495.304z"/>
<path style="fill:#757982;" d="M422.957,495.304c0,9.238-7.456,16.696-16.696,16.696h-256c-27.381,0-51.645-13.134-66.783-33.614
	V133.565c9.239,0,16.696,7.457,16.696,16.696v278.261c0,27.603,22.483,50.087,50.087,50.087h256
	C415.5,478.609,422.957,486.066,422.957,495.304z"/>
<path style="fill:#7F838C;" d="M356.174,428.522c0,9.238-7.456,16.696-16.696,16.696h-33.391c-12.8,0-24.487-4.786-33.391-12.911
	C262.457,423.179,256,409.934,256,395.13V150.26c0-9.238,7.456-16.696,16.696-16.696c9.239,0,16.696,7.457,16.696,16.696v244.87
	c0,9.238,7.456,16.696,16.696,16.696h33.391C348.718,411.826,356.174,419.283,356.174,428.522z"/>
<path style="fill:#757982;" d="M356.174,428.522c0,9.238-7.456,16.696-16.696,16.696h-33.391c-12.8,0-24.487-4.786-33.391-12.911
	V133.565c9.239,0,16.696,7.457,16.696,16.696v244.87c0,9.238,7.456,16.696,16.696,16.696h33.391
	C348.718,411.826,356.174,419.283,356.174,428.522z"/>
<path style="fill:#54CCFF;" d="M100.174,1.67C94.831,0.557,89.155,0,83.478,0S72.125,0.557,66.783,1.67
	C28.718,9.461,0,43.075,0,83.478c0,46.08,37.398,83.478,83.478,83.478s83.478-37.398,83.478-83.478
	C166.957,43.075,138.239,9.461,100.174,1.67z"/>
<path style="fill:#4BB8E6;" d="M166.957,83.478c0-40.403-28.718-74.017-66.783-81.809C94.831,0.557,89.155,0,83.478,0v166.957
	C129.558,166.957,166.957,129.558,166.957,83.478z"/>
<path style="fill:#A1A7B3;" d="M116.87,200.348H50.087c-9.217,0-16.696-7.473-16.696-16.696s7.479-16.696,16.696-16.696h66.783
	c9.217,0,16.696,7.473,16.696,16.696S126.087,200.348,116.87,200.348z"/>
<path style="fill:#979CA7;" d="M116.87,166.957H83.478v33.391h33.391c9.217,0,16.696-7.473,16.696-16.696
	S126.087,166.957,116.87,166.957z"/>
<path style="fill:#A1A7B3;" d="M306.087,200.348h-66.783c-9.217,0-16.696-7.473-16.696-16.696s7.479-16.696,16.696-16.696h66.783
	c9.217,0,16.696,7.473,16.696,16.696S315.304,200.348,306.087,200.348z"/>
<path style="fill:#979CA7;" d="M306.087,166.957h-33.391v33.391h33.391c9.217,0,16.696-7.473,16.696-16.696
	S315.304,166.957,306.087,166.957z"/>
<path style="fill:#54CCFF;" d="M272.696,0c-36.843,0-66.783,37.398-66.783,83.478s29.94,83.478,66.783,83.478
	s66.783-37.398,66.783-83.478S309.539,0,272.696,0z"/>
<path style="fill:#4BB8E6;" d="M339.478,83.478c0,46.08-29.94,83.478-66.783,83.478V0C309.539,0,339.478,37.398,339.478,83.478z"/>
<path style="fill:#B8BFCC;" d="M495.304,311.652H389.565V512h72.348C489.532,512,512,489.532,512,461.913V328.348
	C512,319.125,504.521,311.652,495.304,311.652z"/>
<path style="fill:#C4CAD9;" d="M339.478,311.652c-9.217,0-16.696,7.473-16.696,16.696v133.565c0,27.619,22.468,50.087,50.087,50.087
	h44.522V311.652H339.478z"/>
<path style="fill:#E6EEFF;" d="M461.913,378.435H372.87c-27.619,0-50.087-22.468-50.087-50.087s22.468-50.087,50.087-50.087h89.043
	c27.619,0,50.087,22.468,50.087,50.087S489.532,378.435,461.913,378.435z"/>
<path style="fill:#A1A7B3;" d="M372.87,311.652c-9.206,0-16.696,7.49-16.696,16.696c0,9.206,7.49,16.696,16.696,16.696h89.043
	c9.206,0,16.696-7.49,16.696-16.696s-7.49-16.696-16.696-16.696L372.87,311.652L372.87,311.652z"/>
<path style="fill:#DAE2F2;" d="M461.913,278.261h-44.522v100.174h44.522c27.619,0,50.087-22.468,50.087-50.087
	S489.532,278.261,461.913,278.261z"/>
<path style="fill:#979CA7;" d="M461.913,311.652h-44.522v33.391h44.522c9.206,0,16.696-7.49,16.696-16.696
	C478.609,319.142,471.119,311.652,461.913,311.652z"/>
<path style="fill:#E6EEFF;" d="M83.478,133.565c-27.619,0-50.087-22.468-50.087-50.087c0-23.69,16.858-44.343,40.087-49.097
	c3.152-0.652,6.565-0.989,10-0.989s6.847,0.337,9.88,0.967c23.348,4.777,40.206,25.43,40.206,49.12
	C133.565,111.097,111.097,133.565,83.478,133.565z"/>
<path style="fill:#DAE2F2;" d="M133.565,83.478c0-23.69-16.858-44.343-40.206-49.12c-3.033-0.63-6.446-0.967-9.88-0.967v100.174
	C111.097,133.565,133.565,111.097,133.565,83.478z"/>
<path style="fill:#F29A36;" d="M93.359,34.359c-3.033-0.63-6.446-0.967-9.88-0.967s-6.847,0.337-10,0.989
	c-2.298,0.471-4.532,1.103-6.696,1.872v47.225c0,9.238,7.456,16.696,16.696,16.696s16.696-7.457,16.696-16.696V36.27
	C97.973,35.484,95.701,34.838,93.359,34.359z"/>
<path style="fill:#E7812E;" d="M100.174,83.478V36.27c-1.041-0.372-2.101-0.707-3.174-1.013c-0.145-0.041-0.289-0.079-0.434-0.119
	c-1.055-0.291-2.123-0.557-3.207-0.779c-3.033-0.63-6.446-0.967-9.88-0.967v66.783C92.718,100.174,100.174,92.717,100.174,83.478z"
	/>
<g>
</g>
<g>
</g>
<g>
</g>
<g>
</g>
<g>
</g>
<g>
</g>
<g>
</g>
<g>
</g>
<g>
</g>
<g>
</g>
<g>
</g>
<g>
</g>
<g>
</g>
<g>
</g>
<g>
</g>
</svg>
