<?xml version="1.0" encoding="iso-8859-1"?>
<!-- Generator: Adobe Illustrator 19.0.0, SVG Export Plug-In . SVG Version: 6.00 Build 0)  -->
<svg version="1.1" id="Capa_1" xmlns="http://www.w3.org/2000/svg" xmlns:xlink="http://www.w3.org/1999/xlink" x="0px" y="0px"
	 viewBox="0 0 512 512" style="enable-background:new 0 0 512 512;" xml:space="preserve">
<path style="fill:#EBC9A0;" d="M256,0c-4.492,0-8.127,3.635-8.127,8.127v32.508h16.254V8.127C264.128,3.635,260.492,0,256,0z"/>
<rect x="247.87" y="16.254" style="fill:#D7B48C;" width="16.254" height="24.381"/>
<rect x="239.75" y="121.91" style="fill:#DBD9DC;" width="32.508" height="48.762"/>
<rect x="239.75" y="121.91" style="fill:#C9C6CA;" width="32.508" height="24.381"/>
<path style="fill:#EDEBED;" d="M272.254,97.524h-32.508l-13.314,26.627c-1.351,2.702,0.614,5.881,3.634,5.881h51.866
	c3.021,0,4.985-3.179,3.634-5.881L272.254,97.524z"/>
<polygon style="fill:#DBD9DC;" points="280.382,113.778 272.254,97.524 239.746,97.524 231.619,113.778 "/>
<path style="fill:#EDEBED;" d="M272.254,65.016h-32.508l-13.314,26.627c-1.351,2.702,0.614,5.881,3.634,5.881h51.866
	c3.021,0,4.985-3.179,3.634-5.881L272.254,65.016z"/>
<polygon style="fill:#DBD9DC;" points="280.382,81.27 272.254,65.016 239.746,65.016 231.619,81.27 "/>
<path style="fill:#EDEBED;" d="M267.231,32.508h-22.462c-3.078,0-5.892,1.739-7.269,4.492l-11.067,22.135
	c-1.351,2.702,0.614,5.881,3.634,5.881h51.866c3.021,0,4.985-3.179,3.634-5.881L274.5,37
	C273.124,34.247,270.309,32.508,267.231,32.508z"/>
<path style="fill:#DBD9DC;" d="M280.382,48.762L274.5,37c-1.377-2.753-4.191-4.492-7.269-4.492h-22.462
	c-3.078,0-5.892,1.739-7.269,4.492l-5.881,11.761L280.382,48.762L280.382,48.762z"/>
<path style="fill:#EBC9A0;" d="M353.524,0c-4.492,0-8.127,3.635-8.127,8.127v32.508h16.254V8.127C361.651,3.635,358.016,0,353.524,0
	z"/>
<rect x="345.4" y="16.254" style="fill:#D7B48C;" width="16.254" height="24.381"/>
<rect x="337.27" y="121.91" style="fill:#DBD9DC;" width="32.508" height="48.762"/>
<rect x="337.27" y="121.91" style="fill:#C9C6CA;" width="32.508" height="24.381"/>
<path style="fill:#EDEBED;" d="M369.779,97.524H337.27l-13.314,26.627c-1.351,2.702,0.614,5.881,3.634,5.881h51.866
	c3.021,0,4.985-3.179,3.634-5.881L369.779,97.524z"/>
<polygon style="fill:#DBD9DC;" points="377.905,113.778 369.779,97.524 337.27,97.524 329.143,113.778 "/>
<path style="fill:#EDEBED;" d="M369.779,65.016H337.27l-13.314,26.627c-1.351,2.702,0.614,5.881,3.634,5.881h51.866
	c3.021,0,4.985-3.179,3.634-5.881L369.779,65.016z"/>
<polygon style="fill:#DBD9DC;" points="377.905,81.27 369.779,65.016 337.27,65.016 329.143,81.27 "/>
<path style="fill:#EDEBED;" d="M364.755,32.508h-22.462c-3.078,0-5.892,1.739-7.269,4.492l-11.067,22.135
	c-1.351,2.702,0.614,5.881,3.634,5.881h51.866c3.021,0,4.985-3.179,3.634-5.881L372.024,37
	C370.647,34.247,367.833,32.508,364.755,32.508z"/>
<path style="fill:#DBD9DC;" d="M377.905,48.762L372.024,37c-1.377-2.753-4.191-4.492-7.269-4.492h-22.462
	c-3.078,0-5.892,1.739-7.269,4.492l-5.881,11.761L377.905,48.762L377.905,48.762z"/>
<path style="fill:#EBC9A0;" d="M158.476,0c-4.492,0-8.127,3.635-8.127,8.127v32.508h16.254V8.127C166.603,3.635,162.968,0,158.476,0
	z"/>
<rect x="150.35" y="16.254" style="fill:#D7B48C;" width="16.254" height="24.381"/>
<rect x="142.22" y="121.91" style="fill:#DBD9DC;" width="32.508" height="48.762"/>
<rect x="142.22" y="121.91" style="fill:#C9C6CA;" width="32.508" height="24.381"/>
<rect x="85.33" y="195.05" style="fill:#9C969E;" width="341.33" height="268.19"/>
<path style="fill:#867E88;" d="M215.365,211.302h211.302v-16.254H85.333v268.19h32.508V308.825
	C117.841,254.964,161.504,211.302,215.365,211.302z"/>
<path style="fill:#C9C6CA;" d="M434.794,195.048H77.206c-4.488,0-8.127-3.639-8.127-8.127v-16.254c0-4.488,3.639-8.127,8.127-8.127
	h357.587c4.488,0,8.127,3.639,8.127,8.127v16.254C442.921,191.409,439.283,195.048,434.794,195.048z"/>
<path style="fill:#5D5360;" d="M333.04,414.476H178.96c-5.46,0-10.349-2.825-13.079-7.556c-2.73-4.722-2.73-10.365,0-15.087
	l77.048-133.437c2.73-4.73,7.611-7.556,13.071-7.556c5.46,0,10.341,2.825,13.071,7.556l77.048,133.437
	c2.73,4.722,2.73,10.365,0,15.087C343.389,411.651,338.5,414.476,333.04,414.476z M332.04,399.96h0.087H332.04z"/>
<polygon style="fill:#FFDC64;" points="180.96,398.222 331.04,398.222 256,268.27 "/>
<path style="fill:#EDEBED;" d="M174.73,97.524h-32.508l-13.314,26.627c-1.351,2.702,0.614,5.881,3.634,5.881h51.866
	c3.021,0,4.985-3.179,3.635-5.881L174.73,97.524z"/>
<g>
	<path style="fill:#AEA8AF;" d="M158.476,219.429c-4.492,0-8.127-3.635-8.127-8.127v-16.254c0-4.492,3.635-8.127,8.127-8.127
		s8.127,3.635,8.127,8.127v16.254C166.603,215.794,162.968,219.429,158.476,219.429z"/>
	<path style="fill:#AEA8AF;" d="M256,219.429c-4.492,0-8.127-3.635-8.127-8.127v-16.254c0-4.492,3.635-8.127,8.127-8.127
		s8.127,3.635,8.127,8.127v16.254C264.128,215.794,260.492,219.429,256,219.429z"/>
	<path style="fill:#AEA8AF;" d="M353.524,219.429c-4.492,0-8.127-3.635-8.127-8.127v-16.254c0-4.492,3.635-8.127,8.127-8.127
		s8.127,3.635,8.127,8.127v16.254C361.651,215.794,358.016,219.429,353.524,219.429z"/>
</g>
<path style="fill:#5D5360;" d="M256,386.611c-0.802,0-1.611-0.119-2.413-0.365c-4.286-1.333-6.683-5.897-5.349-10.175l6.849-21.976
	h-9.214c-2.587,0-5.016-1.23-6.548-3.31c-1.532-2.079-1.976-4.77-1.214-7.238l10.127-32.508c1.341-4.278,5.881-6.643,10.183-5.341
	c4.286,1.341,6.675,5.897,5.341,10.183l-6.841,21.96h9.206c2.587,0,5.016,1.23,6.548,3.31c1.532,2.079,1.976,4.77,1.214,7.23
	l-10.127,32.524C262.675,384.381,259.468,386.611,256,386.611z"/>
<path style="fill:#B7B2B8;" d="M109.714,178.794c-4.489,0-8.127-3.639-8.127-8.127v-8.127H77.206c-4.489,0-8.127,3.638-8.127,8.127
	v16.254c0,4.488,3.638,8.127,8.127,8.127h357.587c4.489,0,8.127-3.639,8.127-8.127v-8.127H109.714z"/>
<path style="fill:#C9C6CA;" d="M442.921,512H69.079c-4.488,0-8.127-3.639-8.127-8.127v-32.508c0-4.488,3.639-8.127,8.127-8.127
	h373.841c4.488,0,8.127,3.639,8.127,8.127v32.508C451.048,508.361,447.409,512,442.921,512z"/>
<path style="fill:#B7B2B8;" d="M101.587,487.619c-8.977,0-16.254-7.277-16.254-16.254v-8.127H69.079
	c-4.488,0-8.127,3.639-8.127,8.127v32.508c0,4.488,3.639,8.127,8.127,8.127h373.841c4.488,0,8.127-3.639,8.127-8.127v-16.254
	H101.587z"/>
<polygon style="fill:#DBD9DC;" points="182.857,113.778 174.73,97.524 142.222,97.524 134.095,113.778 "/>
<path style="fill:#EDEBED;" d="M174.73,65.016h-32.508l-13.314,26.627c-1.351,2.702,0.614,5.881,3.634,5.881h51.866
	c3.021,0,4.985-3.179,3.635-5.881L174.73,65.016z"/>
<polygon style="fill:#DBD9DC;" points="182.857,81.27 174.73,65.016 142.222,65.016 134.095,81.27 "/>
<path style="fill:#EDEBED;" d="M169.707,32.508h-22.462c-3.078,0-5.892,1.739-7.269,4.492l-11.067,22.135
	c-1.351,2.702,0.614,5.881,3.634,5.881h51.866c3.021,0,4.985-3.179,3.635-5.881L176.976,37
	C175.6,34.247,172.786,32.508,169.707,32.508z"/>
<path style="fill:#DBD9DC;" d="M182.857,48.762L176.976,37c-1.377-2.753-4.191-4.492-7.269-4.492h-22.462
	c-3.078,0-5.892,1.739-7.269,4.492l-5.881,11.761L182.857,48.762L182.857,48.762z"/>
<g>
</g>
<g>
</g>
<g>
</g>
<g>
</g>
<g>
</g>
<g>
</g>
<g>
</g>
<g>
</g>
<g>
</g>
<g>
</g>
<g>
</g>
<g>
</g>
<g>
</g>
<g>
</g>
<g>
</g>
</svg>
