<?xml version="1.0" encoding="iso-8859-1"?>
<!-- Generator: Adobe Illustrator 19.0.0, SVG Export Plug-In . SVG Version: 6.00 Build 0)  -->
<svg version="1.1" id="Capa_1" xmlns="http://www.w3.org/2000/svg" xmlns:xlink="http://www.w3.org/1999/xlink" x="0px" y="0px"
	 viewBox="0 0 512.002 512.002" style="enable-background:new 0 0 512.002 512.002;" xml:space="preserve">
<path style="fill:#95A5A5;" d="M256.002,128.003c-5.047,0-9.143-4.096-9.143-9.143V18.288c0-5.047,4.096-9.143,9.143-9.143
	c5.047,0,9.143,4.096,9.143,9.143V118.86C265.145,123.907,261.049,128.003,256.002,128.003"/>
<g>
	<path style="fill:#BDC3C7;" d="M228.574,82.288c-20.507,0-36.571-12.05-36.571-27.429s16.064-27.429,36.571-27.429
		s36.571,12.05,36.571,27.429S249.081,82.288,228.574,82.288"/>
	<path style="fill:#BDC3C7;" d="M283.431,82.288c-20.507,0-36.571-12.05-36.571-27.429s16.064-27.429,36.571-27.429
		s36.571,12.05,36.571,27.429S303.938,82.288,283.431,82.288"/>
</g>
<polygon style="fill:#95A5A5;" points="457.145,329.145 512.002,329.145 512.002,146.288 457.145,146.288 "/>
<polygon style="fill:#BDC3C7;" points="338.288,265.145 457.145,265.145 457.145,210.288 338.288,210.288 "/>
<path style="fill:#95A5A5;" d="M307.117,320.003H204.891c-17.216,0-31.177-13.952-31.177-31.168V186.599
	c0-17.216,13.961-31.168,31.177-31.168h102.226c17.216,0,31.168,13.952,31.168,31.168v102.235
	C338.285,306.051,324.333,320.003,307.117,320.003"/>
<g>
	<path style="fill:#BDC3C7;" d="M73.145,210.288c-25.271,0-54.857,20.443-54.857,45.714v82.286h54.857v-45.714
		c0-15.159,12.27-27.429,27.429-27.429h73.143v-54.857L73.145,210.288L73.145,210.288z"/>
	<polygon style="fill:#BDC3C7;" points="228.574,155.431 283.431,155.431 283.431,118.86 228.574,118.86 	"/>
</g>
<path style="fill:#4482C3;" d="M78.041,489.088L78.041,489.088c-17.856,18.359-46.793,18.359-64.649,0l0,0
	c-17.856-18.359-17.856-48.137,0-66.496l32.32-29.449l32.329,29.449C95.897,440.951,95.897,470.729,78.041,489.088"/>
<g>
</g>
<g>
</g>
<g>
</g>
<g>
</g>
<g>
</g>
<g>
</g>
<g>
</g>
<g>
</g>
<g>
</g>
<g>
</g>
<g>
</g>
<g>
</g>
<g>
</g>
<g>
</g>
<g>
</g>
</svg>
