<?xml version="1.0" encoding="iso-8859-1"?>
<!-- Generator: Adobe Illustrator 19.0.0, SVG Export Plug-In . SVG Version: 6.00 Build 0)  -->
<svg version="1.1" id="Capa_1" xmlns="http://www.w3.org/2000/svg" xmlns:xlink="http://www.w3.org/1999/xlink" x="0px" y="0px"
	 viewBox="0 0 512 512" style="enable-background:new 0 0 512 512;" xml:space="preserve">
<circle style="fill:#ECEFF1;" cx="256" cy="256" r="256"/>
<path style="fill:#2196F3;" d="M312.576,256l68.736-103.136c4.224-6.336,3.392-14.784-2.016-20.192
	c-5.376-5.408-13.792-6.272-20.192-2.016L256,199.424l-103.136-68.736c-6.336-4.224-14.784-3.424-20.192,1.984
	c-5.376,5.408-6.208,13.856-1.984,20.192L199.424,256l-68.736,103.136c-4.224,6.336-3.392,14.784,2.016,20.192
	C135.776,382.4,139.872,384,144,384c3.072,0,6.176-0.864,8.864-2.688L256,312.576l103.136,68.736
	c6.4,4.288,14.816,3.392,20.192-2.016c5.408-5.408,6.208-13.856,2.016-20.192L312.576,256z"/>
<path style="fill:#64B5F6;" d="M499.136,240.32L309.6,202.4L271.68,12.864C270.176,5.376,263.616,0,256,0
	s-14.176,5.376-15.68,12.864L202.4,202.4L12.864,240.32C5.376,241.824,0,248.384,0,256s5.376,14.176,12.864,15.68L202.4,309.6
	l37.92,189.536C241.824,506.624,248.384,512,256,512s14.176-5.376,15.68-12.864L309.6,309.6l189.536-37.92
	C506.624,270.176,512,263.616,512,256S506.624,241.824,499.136,240.32z"/>
<g>
</g>
<g>
</g>
<g>
</g>
<g>
</g>
<g>
</g>
<g>
</g>
<g>
</g>
<g>
</g>
<g>
</g>
<g>
</g>
<g>
</g>
<g>
</g>
<g>
</g>
<g>
</g>
<g>
</g>
</svg>
